ISO-10303-21;
HEADER;
/* Generated by software containing ST-Developer
 * from STEP Tools, Inc. (www.steptools.com) 
 */
/* OPTION: strings as raw bytes, not using required /X/ escapes */

FILE_DESCRIPTION(
/* description */ ('Unknown'),
/* implementation_level */ '2;1');

FILE_NAME(
/* name */ 'CURIOSITY-PIC64GX1000_HDMI',
/* time_stamp */ '2026-09-21T15:50:27+02:00',
/* author */ ('Unknown'),
/* organization */ ('Unknown'),
/* preprocessor_version */ 'ST-DEVELOPER v18.102',
/* originating_system */ 'Solid Edge',
/* authorisation */ 'Unknown');

FILE_SCHEMA (('AUTOMOTIVE_DESIGN {1 0 10303 214 3 1 1}'));
ENDSEC;

DATA;
#10=PROPERTY_DEFINITION_REPRESENTATION(#14,#12);
#11=PROPERTY_DEFINITION_REPRESENTATION(#15,#13);
#12=REPRESENTATION('',(#16),#583);
#13=REPRESENTATION('',(#17),#583);
#14=PROPERTY_DEFINITION('pmi validation property','',#588);
#15=PROPERTY_DEFINITION('pmi validation property','',#588);
#16=VALUE_REPRESENTATION_ITEM('number of annotations',COUNT_MEASURE(0.));
#17=VALUE_REPRESENTATION_ITEM('number of views',COUNT_MEASURE(0.));
#18=SHAPE_REPRESENTATION_RELATIONSHIP('','',#373,#19);
#19=ADVANCED_BREP_SHAPE_REPRESENTATION('',(#371),#583);
#20=CIRCLE('',#380,2.75);
#21=CIRCLE('',#381,2.75);
#22=CYLINDRICAL_SURFACE('',#379,2.75);
#23=ORIENTED_EDGE('',*,*,#119,.T.);
#24=ORIENTED_EDGE('',*,*,#120,.T.);
#25=ORIENTED_EDGE('',*,*,#121,.F.);
#26=ORIENTED_EDGE('',*,*,#122,.T.);
#27=ORIENTED_EDGE('',*,*,#123,.F.);
#28=ORIENTED_EDGE('',*,*,#124,.T.);
#29=ORIENTED_EDGE('',*,*,#125,.F.);
#30=ORIENTED_EDGE('',*,*,#126,.T.);
#31=ORIENTED_EDGE('',*,*,#127,.F.);
#32=ORIENTED_EDGE('',*,*,#128,.T.);
#33=ORIENTED_EDGE('',*,*,#121,.T.);
#34=ORIENTED_EDGE('',*,*,#129,.T.);
#35=ORIENTED_EDGE('',*,*,#130,.F.);
#36=ORIENTED_EDGE('',*,*,#131,.T.);
#37=ORIENTED_EDGE('',*,*,#132,.T.);
#38=ORIENTED_EDGE('',*,*,#133,.T.);
#39=ORIENTED_EDGE('',*,*,#134,.F.);
#40=ORIENTED_EDGE('',*,*,#135,.T.);
#41=ORIENTED_EDGE('',*,*,#125,.T.);
#42=ORIENTED_EDGE('',*,*,#136,.T.);
#43=ORIENTED_EDGE('',*,*,#137,.T.);
#44=ORIENTED_EDGE('',*,*,#138,.T.);
#45=ORIENTED_EDGE('',*,*,#130,.T.);
#46=ORIENTED_EDGE('',*,*,#139,.T.);
#47=ORIENTED_EDGE('',*,*,#140,.T.);
#48=ORIENTED_EDGE('',*,*,#141,.F.);
#49=ORIENTED_EDGE('',*,*,#142,.F.);
#50=ORIENTED_EDGE('',*,*,#143,.T.);
#51=ORIENTED_EDGE('',*,*,#134,.T.);
#52=ORIENTED_EDGE('',*,*,#144,.T.);
#53=ORIENTED_EDGE('',*,*,#145,.F.);
#54=ORIENTED_EDGE('',*,*,#146,.T.);
#55=ORIENTED_EDGE('',*,*,#147,.T.);
#56=ORIENTED_EDGE('',*,*,#148,.F.);
#57=ORIENTED_EDGE('',*,*,#149,.F.);
#58=ORIENTED_EDGE('',*,*,#141,.T.);
#59=ORIENTED_EDGE('',*,*,#150,.T.);
#60=ORIENTED_EDGE('',*,*,#151,.F.);
#61=ORIENTED_EDGE('',*,*,#152,.F.);
#62=ORIENTED_EDGE('',*,*,#148,.T.);
#63=ORIENTED_EDGE('',*,*,#153,.T.);
#64=ORIENTED_EDGE('',*,*,#128,.F.);
#65=ORIENTED_EDGE('',*,*,#154,.F.);
#66=ORIENTED_EDGE('',*,*,#151,.T.);
#67=ORIENTED_EDGE('',*,*,#127,.T.);
#68=ORIENTED_EDGE('',*,*,#155,.T.);
#69=ORIENTED_EDGE('',*,*,#142,.T.);
#70=ORIENTED_EDGE('',*,*,#149,.T.);
#71=ORIENTED_EDGE('',*,*,#152,.T.);
#72=ORIENTED_EDGE('',*,*,#154,.T.);
#73=ORIENTED_EDGE('',*,*,#140,.F.);
#74=ORIENTED_EDGE('',*,*,#156,.T.);
#75=ORIENTED_EDGE('',*,*,#119,.F.);
#76=ORIENTED_EDGE('',*,*,#153,.F.);
#77=ORIENTED_EDGE('',*,*,#150,.F.);
#78=ORIENTED_EDGE('',*,*,#147,.F.);
#79=ORIENTED_EDGE('',*,*,#132,.F.);
#80=ORIENTED_EDGE('',*,*,#157,.F.);
#81=ORIENTED_EDGE('',*,*,#158,.T.);
#82=ORIENTED_EDGE('',*,*,#159,.T.);
#83=ORIENTED_EDGE('',*,*,#160,.F.);
#84=ORIENTED_EDGE('',*,*,#145,.T.);
#85=ORIENTED_EDGE('',*,*,#161,.F.);
#86=ORIENTED_EDGE('',*,*,#158,.F.);
#87=ORIENTED_EDGE('',*,*,#144,.F.);
#88=ORIENTED_EDGE('',*,*,#133,.F.);
#89=ORIENTED_EDGE('',*,*,#159,.F.);
#90=ORIENTED_EDGE('',*,*,#161,.T.);
#91=ORIENTED_EDGE('',*,*,#146,.F.);
#92=ORIENTED_EDGE('',*,*,#160,.T.);
#93=ORIENTED_EDGE('',*,*,#157,.T.);
#94=ORIENTED_EDGE('',*,*,#131,.F.);
#95=ORIENTED_EDGE('',*,*,#122,.F.);
#96=ORIENTED_EDGE('',*,*,#138,.F.);
#97=ORIENTED_EDGE('',*,*,#162,.F.);
#98=ORIENTED_EDGE('',*,*,#163,.T.);
#99=ORIENTED_EDGE('',*,*,#124,.F.);
#100=ORIENTED_EDGE('',*,*,#164,.T.);
#101=ORIENTED_EDGE('',*,*,#165,.T.);
#102=ORIENTED_EDGE('',*,*,#136,.F.);
#103=ORIENTED_EDGE('',*,*,#164,.F.);
#104=ORIENTED_EDGE('',*,*,#123,.T.);
#105=ORIENTED_EDGE('',*,*,#163,.F.);
#106=ORIENTED_EDGE('',*,*,#166,.F.);
#107=ORIENTED_EDGE('',*,*,#137,.F.);
#108=ORIENTED_EDGE('',*,*,#165,.F.);
#109=ORIENTED_EDGE('',*,*,#166,.T.);
#110=ORIENTED_EDGE('',*,*,#162,.T.);
#111=ORIENTED_EDGE('',*,*,#120,.F.);
#112=ORIENTED_EDGE('',*,*,#156,.F.);
#113=ORIENTED_EDGE('',*,*,#139,.F.);
#114=ORIENTED_EDGE('',*,*,#129,.F.);
#115=ORIENTED_EDGE('',*,*,#126,.F.);
#116=ORIENTED_EDGE('',*,*,#135,.F.);
#117=ORIENTED_EDGE('',*,*,#143,.F.);
#118=ORIENTED_EDGE('',*,*,#155,.F.);
#119=EDGE_CURVE('',#167,#168,#199,.T.);
#120=EDGE_CURVE('',#168,#169,#200,.T.);
#121=EDGE_CURVE('',#170,#169,#201,.T.);
#122=EDGE_CURVE('',#170,#171,#202,.T.);
#123=EDGE_CURVE('',#172,#171,#203,.T.);
#124=EDGE_CURVE('',#172,#173,#204,.T.);
#125=EDGE_CURVE('',#174,#173,#205,.T.);
#126=EDGE_CURVE('',#174,#175,#206,.F.);
#127=EDGE_CURVE('',#176,#175,#207,.T.);
#128=EDGE_CURVE('',#176,#167,#208,.T.);
#129=EDGE_CURVE('',#169,#177,#209,.T.);
#130=EDGE_CURVE('',#178,#177,#210,.T.);
#131=EDGE_CURVE('',#178,#179,#211,.T.);
#132=EDGE_CURVE('',#179,#180,#212,.T.);
#133=EDGE_CURVE('',#180,#181,#213,.T.);
#134=EDGE_CURVE('',#182,#181,#214,.T.);
#135=EDGE_CURVE('',#182,#174,#215,.T.);
#136=EDGE_CURVE('',#173,#183,#216,.T.);
#137=EDGE_CURVE('',#183,#184,#217,.T.);
#138=EDGE_CURVE('',#184,#170,#218,.T.);
#139=EDGE_CURVE('',#177,#185,#219,.T.);
#140=EDGE_CURVE('',#185,#186,#220,.T.);
#141=EDGE_CURVE('',#187,#186,#221,.T.);
#142=EDGE_CURVE('',#188,#187,#222,.T.);
#143=EDGE_CURVE('',#188,#182,#223,.F.);
#144=EDGE_CURVE('',#181,#189,#224,.T.);
#145=EDGE_CURVE('',#190,#189,#225,.T.);
#146=EDGE_CURVE('',#190,#178,#226,.T.);
#147=EDGE_CURVE('',#186,#191,#227,.T.);
#148=EDGE_CURVE('',#192,#191,#228,.T.);
#149=EDGE_CURVE('',#187,#192,#229,.T.);
#150=EDGE_CURVE('',#191,#193,#20,.T.);
#151=EDGE_CURVE('',#194,#193,#230,.T.);
#152=EDGE_CURVE('',#192,#194,#21,.T.);
#153=EDGE_CURVE('',#193,#167,#231,.T.);
#154=EDGE_CURVE('',#194,#176,#232,.T.);
#155=EDGE_CURVE('',#175,#188,#233,.T.);
#156=EDGE_CURVE('',#185,#168,#234,.T.);
#157=EDGE_CURVE('',#195,#179,#235,.T.);
#158=EDGE_CURVE('',#195,#196,#236,.T.);
#159=EDGE_CURVE('',#196,#180,#237,.T.);
#160=EDGE_CURVE('',#190,#195,#238,.T.);
#161=EDGE_CURVE('',#196,#189,#239,.T.);
#162=EDGE_CURVE('',#197,#184,#240,.T.);
#163=EDGE_CURVE('',#197,#171,#241,.T.);
#164=EDGE_CURVE('',#172,#198,#242,.T.);
#165=EDGE_CURVE('',#198,#183,#243,.T.);
#166=EDGE_CURVE('',#198,#197,#244,.T.);
#167=VERTEX_POINT('',#486);
#168=VERTEX_POINT('',#487);
#169=VERTEX_POINT('',#489);
#170=VERTEX_POINT('',#491);
#171=VERTEX_POINT('',#493);
#172=VERTEX_POINT('',#495);
#173=VERTEX_POINT('',#497);
#174=VERTEX_POINT('',#499);
#175=VERTEX_POINT('',#501);
#176=VERTEX_POINT('',#503);
#177=VERTEX_POINT('',#507);
#178=VERTEX_POINT('',#509);
#179=VERTEX_POINT('',#511);
#180=VERTEX_POINT('',#513);
#181=VERTEX_POINT('',#515);
#182=VERTEX_POINT('',#517);
#183=VERTEX_POINT('',#520);
#184=VERTEX_POINT('',#522);
#185=VERTEX_POINT('',#526);
#186=VERTEX_POINT('',#528);
#187=VERTEX_POINT('',#530);
#188=VERTEX_POINT('',#532);
#189=VERTEX_POINT('',#535);
#190=VERTEX_POINT('',#537);
#191=VERTEX_POINT('',#541);
#192=VERTEX_POINT('',#543);
#193=VERTEX_POINT('',#547);
#194=VERTEX_POINT('',#549);
#195=VERTEX_POINT('',#560);
#196=VERTEX_POINT('',#562);
#197=VERTEX_POINT('',#571);
#198=VERTEX_POINT('',#575);
#199=LINE('',#485,#245);
#200=LINE('',#488,#246);
#201=LINE('',#490,#247);
#202=LINE('',#492,#248);
#203=LINE('',#494,#249);
#204=LINE('',#496,#250);
#205=LINE('',#498,#251);
#206=LINE('',#500,#252);
#207=LINE('',#502,#253);
#208=LINE('',#504,#254);
#209=LINE('',#506,#255);
#210=LINE('',#508,#256);
#211=LINE('',#510,#257);
#212=LINE('',#512,#258);
#213=LINE('',#514,#259);
#214=LINE('',#516,#260);
#215=LINE('',#518,#261);
#216=LINE('',#519,#262);
#217=LINE('',#521,#263);
#218=LINE('',#523,#264);
#219=LINE('',#525,#265);
#220=LINE('',#527,#266);
#221=LINE('',#529,#267);
#222=LINE('',#531,#268);
#223=LINE('',#533,#269);
#224=LINE('',#534,#270);
#225=LINE('',#536,#271);
#226=LINE('',#538,#272);
#227=LINE('',#540,#273);
#228=LINE('',#542,#274);
#229=LINE('',#544,#275);
#230=LINE('',#548,#276);
#231=LINE('',#552,#277);
#232=LINE('',#553,#278);
#233=LINE('',#555,#279);
#234=LINE('',#557,#280);
#235=LINE('',#559,#281);
#236=LINE('',#561,#282);
#237=LINE('',#563,#283);
#238=LINE('',#565,#284);
#239=LINE('',#566,#285);
#240=LINE('',#570,#286);
#241=LINE('',#572,#287);
#242=LINE('',#574,#288);
#243=LINE('',#576,#289);
#244=LINE('',#578,#290);
#245=VECTOR('',#399,1000.);
#246=VECTOR('',#400,1000.);
#247=VECTOR('',#401,1000.);
#248=VECTOR('',#402,1000.);
#249=VECTOR('',#403,1000.);
#250=VECTOR('',#404,1000.);
#251=VECTOR('',#405,1000.);
#252=VECTOR('',#406,1000.);
#253=VECTOR('',#407,1000.);
#254=VECTOR('',#408,1000.);
#255=VECTOR('',#411,1000.);
#256=VECTOR('',#412,1000.);
#257=VECTOR('',#413,1000.);
#258=VECTOR('',#414,1000.);
#259=VECTOR('',#415,1000.);
#260=VECTOR('',#416,1000.);
#261=VECTOR('',#417,1000.);
#262=VECTOR('',#418,1000.);
#263=VECTOR('',#419,1000.);
#264=VECTOR('',#420,1000.);
#265=VECTOR('',#423,1000.);
#266=VECTOR('',#424,1000.);
#267=VECTOR('',#425,1000.);
#268=VECTOR('',#426,1000.);
#269=VECTOR('',#427,1000.);
#270=VECTOR('',#428,1000.);
#271=VECTOR('',#429,1000.);
#272=VECTOR('',#430,1000.);
#273=VECTOR('',#433,1000.);
#274=VECTOR('',#434,1000.);
#275=VECTOR('',#435,1000.);
#276=VECTOR('',#440,1000.);
#277=VECTOR('',#445,1000.);
#278=VECTOR('',#446,1000.);
#279=VECTOR('',#449,1000.);
#280=VECTOR('',#452,1000.);
#281=VECTOR('',#455,1000.);
#282=VECTOR('',#456,1000.);
#283=VECTOR('',#457,1000.);
#284=VECTOR('',#460,1000.);
#285=VECTOR('',#461,1000.);
#286=VECTOR('',#468,1000.);
#287=VECTOR('',#469,1000.);
#288=VECTOR('',#472,1000.);
#289=VECTOR('',#473,1000.);
#290=VECTOR('',#476,1000.);
#291=EDGE_LOOP('',(#23,#24,#25,#26,#27,#28,#29,#30,#31,#32));
#292=EDGE_LOOP('',(#33,#34,#35,#36,#37,#38,#39,#40,#41,#42,#43,#44));
#293=EDGE_LOOP('',(#45,#46,#47,#48,#49,#50,#51,#52,#53,#54));
#294=EDGE_LOOP('',(#55,#56,#57,#58));
#295=EDGE_LOOP('',(#59,#60,#61,#62));
#296=EDGE_LOOP('',(#63,#64,#65,#66));
#297=EDGE_LOOP('',(#67,#68,#69,#70,#71,#72));
#298=EDGE_LOOP('',(#73,#74,#75,#76,#77,#78));
#299=EDGE_LOOP('',(#79,#80,#81,#82));
#300=EDGE_LOOP('',(#83,#84,#85,#86));
#301=EDGE_LOOP('',(#87,#88,#89,#90));
#302=EDGE_LOOP('',(#91,#92,#93,#94));
#303=EDGE_LOOP('',(#95,#96,#97,#98));
#304=EDGE_LOOP('',(#99,#100,#101,#102));
#305=EDGE_LOOP('',(#103,#104,#105,#106));
#306=EDGE_LOOP('',(#107,#108,#109,#110));
#307=EDGE_LOOP('',(#111,#112,#113,#114));
#308=EDGE_LOOP('',(#115,#116,#117,#118));
#309=FACE_BOUND('',#291,.T.);
#310=FACE_BOUND('',#292,.T.);
#311=FACE_BOUND('',#293,.T.);
#312=FACE_BOUND('',#294,.T.);
#313=FACE_BOUND('',#295,.T.);
#314=FACE_BOUND('',#296,.T.);
#315=FACE_BOUND('',#297,.T.);
#316=FACE_BOUND('',#298,.T.);
#317=FACE_BOUND('',#299,.T.);
#318=FACE_BOUND('',#300,.T.);
#319=FACE_BOUND('',#301,.T.);
#320=FACE_BOUND('',#302,.T.);
#321=FACE_BOUND('',#303,.T.);
#322=FACE_BOUND('',#304,.T.);
#323=FACE_BOUND('',#305,.T.);
#324=FACE_BOUND('',#306,.T.);
#325=FACE_BOUND('',#307,.T.);
#326=FACE_BOUND('',#308,.T.);
#327=PLANE('',#375);
#328=PLANE('',#376);
#329=PLANE('',#377);
#330=PLANE('',#378);
#331=PLANE('',#382);
#332=PLANE('',#383);
#333=PLANE('',#384);
#334=PLANE('',#385);
#335=PLANE('',#386);
#336=PLANE('',#387);
#337=PLANE('',#388);
#338=PLANE('',#389);
#339=PLANE('',#390);
#340=PLANE('',#391);
#341=PLANE('',#392);
#342=PLANE('',#393);
#343=PLANE('',#394);
#344=ADVANCED_FACE('',(#309),#327,.F.);
#345=ADVANCED_FACE('',(#310),#328,.F.);
#346=ADVANCED_FACE('',(#311),#329,.F.);
#347=ADVANCED_FACE('',(#312),#330,.F.);
#348=ADVANCED_FACE('',(#313),#22,.F.);
#349=ADVANCED_FACE('',(#314),#331,.F.);
#350=ADVANCED_FACE('',(#315),#332,.F.);
#351=ADVANCED_FACE('',(#316),#333,.T.);
#352=ADVANCED_FACE('',(#317),#334,.T.);
#353=ADVANCED_FACE('',(#318),#335,.F.);
#354=ADVANCED_FACE('',(#319),#336,.T.);
#355=ADVANCED_FACE('',(#320),#337,.T.);
#356=ADVANCED_FACE('',(#321),#338,.T.);
#357=ADVANCED_FACE('',(#322),#339,.T.);
#358=ADVANCED_FACE('',(#323),#340,.F.);
#359=ADVANCED_FACE('',(#324),#341,.T.);
#360=ADVANCED_FACE('',(#325),#342,.T.);
#361=ADVANCED_FACE('',(#326),#343,.F.);
#362=CLOSED_SHELL('',(#344,#345,#346,#347,#348,#349,#350,#351,#352,#353,
#354,#355,#356,#357,#358,#359,#360,#361));
#363=STYLED_ITEM('',(#364),#371);
#364=PRESENTATION_STYLE_ASSIGNMENT((#365));
#365=SURFACE_STYLE_USAGE(.BOTH.,#366);
#366=SURFACE_SIDE_STYLE('',(#367));
#367=SURFACE_STYLE_FILL_AREA(#368);
#368=FILL_AREA_STYLE('',(#369));
#369=FILL_AREA_STYLE_COLOUR('',#370);
#370=COLOUR_RGB('',0.506983280181885,0.531564235687256,0.550000011920929);
#371=MANIFOLD_SOLID_BREP('',#362);
#372=SHAPE_DEFINITION_REPRESENTATION(#588,#373);
#373=SHAPE_REPRESENTATION('CURIOSITY-PIC64GX1000_HDMI',(#374),#583);
#374=AXIS2_PLACEMENT_3D('',#483,#395,#396);
#375=AXIS2_PLACEMENT_3D('',#484,#397,#398);
#376=AXIS2_PLACEMENT_3D('',#505,#409,#410);
#377=AXIS2_PLACEMENT_3D('',#524,#421,#422);
#378=AXIS2_PLACEMENT_3D('',#539,#431,#432);
#379=AXIS2_PLACEMENT_3D('',#545,#436,#437);
#380=AXIS2_PLACEMENT_3D('',#546,#438,#439);
#381=AXIS2_PLACEMENT_3D('',#550,#441,#442);
#382=AXIS2_PLACEMENT_3D('',#551,#443,#444);
#383=AXIS2_PLACEMENT_3D('',#554,#447,#448);
#384=AXIS2_PLACEMENT_3D('',#556,#450,#451);
#385=AXIS2_PLACEMENT_3D('',#558,#453,#454);
#386=AXIS2_PLACEMENT_3D('',#564,#458,#459);
#387=AXIS2_PLACEMENT_3D('',#567,#462,#463);
#388=AXIS2_PLACEMENT_3D('',#568,#464,#465);
#389=AXIS2_PLACEMENT_3D('',#569,#466,#467);
#390=AXIS2_PLACEMENT_3D('',#573,#470,#471);
#391=AXIS2_PLACEMENT_3D('',#577,#474,#475);
#392=AXIS2_PLACEMENT_3D('',#579,#477,#478);
#393=AXIS2_PLACEMENT_3D('',#580,#479,#480);
#394=AXIS2_PLACEMENT_3D('',#581,#481,#482);
#395=DIRECTION('',(0.,0.,1.));
#396=DIRECTION('',(1.,0.,0.));
#397=DIRECTION('',(1.,-8.36011313723762E-17,0.));
#398=DIRECTION('',(8.36011313723762E-17,1.,0.));
#399=DIRECTION('',(-8.36011313723762E-17,-1.,0.));
#400=DIRECTION('',(-5.91149269082747E-17,-0.707106781186547,0.707106781186548));
#401=DIRECTION('',(0.,0.,-1.));
#402=DIRECTION('',(8.36011313723762E-17,1.,1.74476404738139E-32));
#403=DIRECTION('',(0.,0.,-1.));
#404=DIRECTION('',(-8.36011313723762E-17,-1.,-1.74476404738139E-32));
#405=DIRECTION('',(0.,0.,-1.));
#406=DIRECTION('',(-5.91149269082747E-17,-0.707106781186548,-0.707106781186547));
#407=DIRECTION('',(-8.36011313723762E-17,-1.,0.));
#408=DIRECTION('',(0.,0.,-1.));
#409=DIRECTION('',(-6.12323399573677E-17,1.,0.));
#410=DIRECTION('',(-1.,-6.12323399573677E-17,0.));
#411=DIRECTION('',(1.,6.12323399573677E-17,0.));
#412=DIRECTION('',(0.,0.,-1.));
#413=DIRECTION('',(1.,6.12323399573677E-17,1.20466908053945E-16));
#414=DIRECTION('',(0.,0.,1.));
#415=DIRECTION('',(-1.,-6.12323399573677E-17,-1.20466908053945E-16));
#416=DIRECTION('',(0.,0.,-1.));
#417=DIRECTION('',(-1.,-6.12323399573677E-17,0.));
#418=DIRECTION('',(-1.,-6.12323399573677E-17,-1.20466908053945E-16));
#419=DIRECTION('',(0.,0.,-1.));
#420=DIRECTION('',(1.,6.12323399573677E-17,1.20466908053945E-16));
#421=DIRECTION('',(-1.,0.,0.));
#422=DIRECTION('',(0.,0.,1.));
#423=DIRECTION('',(0.,0.707106781186547,-0.707106781186548));
#424=DIRECTION('',(0.,1.,0.));
#425=DIRECTION('',(0.,0.,-1.));
#426=DIRECTION('',(0.,1.,0.));
#427=DIRECTION('',(0.,0.707106781186548,0.707106781186547));
#428=DIRECTION('',(0.,1.,7.37647066757211E-33));
#429=DIRECTION('',(0.,0.,1.));
#430=DIRECTION('',(0.,-1.,-7.37647066757211E-33));
#431=DIRECTION('',(5.01864461737982E-14,-1.,0.));
#432=DIRECTION('',(1.,5.01864461737982E-14,0.));
#433=DIRECTION('',(-1.,-5.01864461737982E-14,0.));
#434=DIRECTION('',(0.,0.,-1.));
#435=DIRECTION('',(-1.,-5.01864461737982E-14,0.));
#436=DIRECTION('',(0.,0.,-1.));
#437=DIRECTION('',(-1.,0.,0.));
#438=DIRECTION('',(0.,0.,-1.));
#439=DIRECTION('',(1.,0.,0.));
#440=DIRECTION('',(0.,0.,-1.));
#441=DIRECTION('',(0.,0.,-1.));
#442=DIRECTION('',(1.,0.,0.));
#443=DIRECTION('',(-2.50932230868992E-14,-1.,0.));
#444=DIRECTION('',(1.,-2.50932230868992E-14,0.));
#445=DIRECTION('',(-1.,2.50932230868992E-14,0.));
#446=DIRECTION('',(-1.,2.50932230868992E-14,0.));
#447=DIRECTION('',(0.,0.,-1.));
#448=DIRECTION('',(-1.,0.,0.));
#449=DIRECTION('',(1.,6.12323399573677E-17,0.));
#450=DIRECTION('',(0.,0.,-1.));
#451=DIRECTION('',(-1.,0.,0.));
#452=DIRECTION('',(-1.,-6.12323399573677E-17,0.));
#453=DIRECTION('',(1.,6.12323399573677E-17,0.));
#454=DIRECTION('',(-6.12323399573677E-17,1.,0.));
#455=DIRECTION('',(6.12323399573677E-17,-1.,0.));
#456=DIRECTION('',(0.,0.,1.));
#457=DIRECTION('',(6.12323399573677E-17,-1.,0.));
#458=DIRECTION('',(6.12323399573677E-17,-1.,0.));
#459=DIRECTION('',(1.,6.12323399573677E-17,0.));
#460=DIRECTION('',(1.,6.12323399573677E-17,1.20466908053945E-16));
#461=DIRECTION('',(-1.,-6.12323399573677E-17,-1.20466908053945E-16));
#462=DIRECTION('',(-1.20466908053945E-16,-7.37647066757211E-33,1.));
#463=DIRECTION('',(1.,0.,1.20466908053945E-16));
#464=DIRECTION('',(1.20466908053945E-16,7.37647066757211E-33,-1.));
#465=DIRECTION('',(-1.,0.,-1.20466908053945E-16));
#466=DIRECTION('',(1.20466908053945E-16,7.37647066757211E-33,-1.));
#467=DIRECTION('',(-1.,0.,-1.20466908053945E-16));
#468=DIRECTION('',(6.12323399573677E-17,-1.,0.));
#469=DIRECTION('',(1.,6.12323399573677E-17,1.20466908053945E-16));
#470=DIRECTION('',(-1.20466908053945E-16,-7.37647066757211E-33,1.));
#471=DIRECTION('',(1.,0.,1.20466908053945E-16));
#472=DIRECTION('',(-1.,-6.12323399573677E-17,-1.20466908053945E-16));
#473=DIRECTION('',(6.12323399573677E-17,-1.,0.));
#474=DIRECTION('',(6.12323399573677E-17,-1.,0.));
#475=DIRECTION('',(1.,6.12323399573677E-17,0.));
#476=DIRECTION('',(0.,0.,-1.));
#477=DIRECTION('',(-1.,-6.12323399573677E-17,0.));
#478=DIRECTION('',(6.12323399573677E-17,-1.,0.));
#479=DIRECTION('',(4.32978028117747E-17,-0.707106781186548,-0.707106781186547));
#480=DIRECTION('',(-1.,-6.12323399573677E-17,0.));
#481=DIRECTION('',(-4.32978028117747E-17,0.707106781186547,-0.707106781186548));
#482=DIRECTION('',(1.,6.12323399573677E-17,0.));
#483=CARTESIAN_POINT('',(0.,0.,0.));
#484=CARTESIAN_POINT('',(-2.69999999999999,0.,3.));
#485=CARTESIAN_POINT('',(-2.69999999999999,0.,-3.));
#486=CARTESIAN_POINT('',(-2.69999999999999,20.75,-3.));
#487=CARTESIAN_POINT('',(-2.69999999999999,0.5,-3.));
#488=CARTESIAN_POINT('',(-2.69999999999999,0.,-2.5));
#489=CARTESIAN_POINT('',(-2.69999999999999,0.,-2.5));
#490=CARTESIAN_POINT('',(-2.69999999999999,0.,3.));
#491=CARTESIAN_POINT('',(-2.69999999999999,0.,-0.95));
#492=CARTESIAN_POINT('',(-2.69999999999999,6.89181798715651E-32,-0.95));
#493=CARTESIAN_POINT('',(-2.69999999999999,8.,-0.95));
#494=CARTESIAN_POINT('',(-2.69999999999999,8.,3.));
#495=CARTESIAN_POINT('',(-2.69999999999999,8.,0.949999999999999));
#496=CARTESIAN_POINT('',(-2.69999999999999,3.57676629713186E-32,0.949999999999999));
#497=CARTESIAN_POINT('',(-2.69999999999999,0.,0.949999999999999));
#498=CARTESIAN_POINT('',(-2.69999999999999,0.,3.));
#499=CARTESIAN_POINT('',(-2.69999999999999,0.,2.5));
#500=CARTESIAN_POINT('',(-2.69999999999999,0.5,3.));
#501=CARTESIAN_POINT('',(-2.69999999999999,0.5,3.));
#502=CARTESIAN_POINT('',(-2.69999999999999,0.,3.));
#503=CARTESIAN_POINT('',(-2.69999999999999,20.75,3.));
#504=CARTESIAN_POINT('',(-2.69999999999999,20.75,3.));
#505=CARTESIAN_POINT('',(-2.69999999999999,0.,3.));
#506=CARTESIAN_POINT('',(2.7,3.30654635769785E-16,-2.5));
#507=CARTESIAN_POINT('',(2.7,3.30654635769785E-16,-2.5));
#508=CARTESIAN_POINT('',(2.7,3.30654635769785E-16,3.));
#509=CARTESIAN_POINT('',(2.7,3.30654635769785E-16,-0.95));
#510=CARTESIAN_POINT('',(-4.49999999999999,-1.10218211923262E-16,-0.950000000000001));
#511=CARTESIAN_POINT('',(4.5,4.40872847693047E-16,-0.95));
#512=CARTESIAN_POINT('',(4.5,4.40872847693047E-16,-0.95));
#513=CARTESIAN_POINT('',(4.5,4.40872847693047E-16,0.949999999999999));
#514=CARTESIAN_POINT('',(4.5,4.40872847693047E-16,0.949999999999999));
#515=CARTESIAN_POINT('',(2.7,3.30654635769785E-16,0.949999999999999));
#516=CARTESIAN_POINT('',(2.7,3.30654635769785E-16,3.));
#517=CARTESIAN_POINT('',(2.7,3.30654635769785E-16,2.5));
#518=CARTESIAN_POINT('',(-2.69999999999999,0.,2.5));
#519=CARTESIAN_POINT('',(4.5,4.40872847693047E-16,0.949999999999999));
#520=CARTESIAN_POINT('',(-4.49999999999999,-1.10218211923262E-16,0.949999999999998));
#521=CARTESIAN_POINT('',(-4.49999999999999,-1.10218211923262E-16,0.949999999999998));
#522=CARTESIAN_POINT('',(-4.49999999999999,-1.10218211923262E-16,-0.950000000000001));
#523=CARTESIAN_POINT('',(-4.49999999999999,-1.10218211923262E-16,-0.950000000000001));
#524=CARTESIAN_POINT('',(2.7,3.30654635769785E-16,3.));
#525=CARTESIAN_POINT('',(2.7,1.65327317884893E-16,-2.5));
#526=CARTESIAN_POINT('',(2.7,0.500000000000001,-3.));
#527=CARTESIAN_POINT('',(2.7,3.30654635769785E-16,-3.));
#528=CARTESIAN_POINT('',(2.7,20.75,-3.));
#529=CARTESIAN_POINT('',(2.7,20.75,3.));
#530=CARTESIAN_POINT('',(2.7,20.75,3.));
#531=CARTESIAN_POINT('',(2.7,3.30654635769785E-16,3.));
#532=CARTESIAN_POINT('',(2.7,0.500000000000001,3.));
#533=CARTESIAN_POINT('',(2.7,0.500000000000001,3.));
#534=CARTESIAN_POINT('',(2.7,3.30654635769785E-16,0.949999999999999));
#535=CARTESIAN_POINT('',(2.7,8.,0.949999999999999));
#536=CARTESIAN_POINT('',(2.7,8.,3.));
#537=CARTESIAN_POINT('',(2.7,8.,-0.950000000000001));
#538=CARTESIAN_POINT('',(2.7,3.30654635769785E-16,-0.95));
#539=CARTESIAN_POINT('',(2.7,20.75,3.));
#540=CARTESIAN_POINT('',(2.7,20.75,-3.));
#541=CARTESIAN_POINT('',(2.5617376914899,20.75,-3.));
#542=CARTESIAN_POINT('',(2.5617376914899,20.75,3.));
#543=CARTESIAN_POINT('',(2.5617376914899,20.75,3.));
#544=CARTESIAN_POINT('',(2.7,20.75,3.));
#545=CARTESIAN_POINT('',(4.3009984126338E-15,21.75,3.));
#546=CARTESIAN_POINT('',(4.3009984126338E-15,21.75,-3.));
#547=CARTESIAN_POINT('',(-2.56173769148989,20.75,-3.));
#548=CARTESIAN_POINT('',(-2.56173769148989,20.75,3.));
#549=CARTESIAN_POINT('',(-2.56173769148989,20.75,3.));
#550=CARTESIAN_POINT('',(4.3009984126338E-15,21.75,3.));
#551=CARTESIAN_POINT('',(-2.69999999999999,20.75,3.));
#552=CARTESIAN_POINT('',(-2.69999999999999,20.75,-3.));
#553=CARTESIAN_POINT('',(-2.69999999999999,20.75,3.));
#554=CARTESIAN_POINT('',(4.3009984126338E-15,21.75,3.));
#555=CARTESIAN_POINT('',(5.60218563672787E-15,0.5,3.));
#556=CARTESIAN_POINT('',(4.3009984126338E-15,21.75,-3.));
#557=CARTESIAN_POINT('',(-2.69999999999999,0.5,-3.));
#558=CARTESIAN_POINT('',(4.5,8.,-0.95));
#559=CARTESIAN_POINT('',(4.5,8.,-0.95));
#560=CARTESIAN_POINT('',(4.5,8.,-0.95));
#561=CARTESIAN_POINT('',(4.5,8.,-0.95));
#562=CARTESIAN_POINT('',(4.5,8.,0.949999999999999));
#563=CARTESIAN_POINT('',(4.5,8.,0.949999999999999));
#564=CARTESIAN_POINT('',(-4.89858719658941E-16,8.,0.));
#565=CARTESIAN_POINT('',(-4.5,8.,-0.950000000000001));
#566=CARTESIAN_POINT('',(4.5,8.,0.949999999999999));
#567=CARTESIAN_POINT('',(4.5,8.,0.949999999999999));
#568=CARTESIAN_POINT('',(-4.5,8.,-0.950000000000001));
#569=CARTESIAN_POINT('',(-4.5,8.,-0.950000000000001));
#570=CARTESIAN_POINT('',(-4.5,8.,-0.950000000000001));
#571=CARTESIAN_POINT('',(-4.5,8.,-0.950000000000001));
#572=CARTESIAN_POINT('',(-4.5,8.,-0.950000000000001));
#573=CARTESIAN_POINT('',(4.5,8.,0.949999999999999));
#574=CARTESIAN_POINT('',(4.5,8.,0.949999999999999));
#575=CARTESIAN_POINT('',(-4.5,8.,0.949999999999998));
#576=CARTESIAN_POINT('',(-4.5,8.,0.949999999999998));
#577=CARTESIAN_POINT('',(-4.89858719658941E-16,8.,0.));
#578=CARTESIAN_POINT('',(-4.5,8.,0.949999999999998));
#579=CARTESIAN_POINT('',(-4.5,8.,0.949999999999998));
#580=CARTESIAN_POINT('',(-2.69999999999999,0.,-2.5));
#581=CARTESIAN_POINT('',(5.60218563672787E-15,0.5,3.));
#582=MECHANICAL_DESIGN_GEOMETRIC_PRESENTATION_REPRESENTATION('',(#363),
#583);
#583=(
GEOMETRIC_REPRESENTATION_CONTEXT(3)
GLOBAL_UNCERTAINTY_ASSIGNED_CONTEXT((#584))
GLOBAL_UNIT_ASSIGNED_CONTEXT((#587,#586,#585))
REPRESENTATION_CONTEXT('CURIOSITY-PIC64GX1000_HDMI',
'TOP_LEVEL_ASSEMBLY_PART')
);
#584=UNCERTAINTY_MEASURE_WITH_UNIT(LENGTH_MEASURE(0.005),#587,
'DISTANCE_ACCURACY_VALUE','Maximum Tolerance applied to model');
#585=(
NAMED_UNIT(*)
SI_UNIT($,.STERADIAN.)
SOLID_ANGLE_UNIT()
);
#586=(
NAMED_UNIT(*)
PLANE_ANGLE_UNIT()
SI_UNIT($,.RADIAN.)
);
#587=(
LENGTH_UNIT()
NAMED_UNIT(*)
SI_UNIT(.MILLI.,.METRE.)
);
#588=PRODUCT_DEFINITION_SHAPE('','',#589);
#589=PRODUCT_DEFINITION('','',#591,#590);
#590=PRODUCT_DEFINITION_CONTEXT('',#597,'design');
#591=PRODUCT_DEFINITION_FORMATION_WITH_SPECIFIED_SOURCE('','',#593,
 .NOT_KNOWN.);
#592=PRODUCT_RELATED_PRODUCT_CATEGORY('','',(#593));
#593=PRODUCT('CURIOSITY-PIC64GX1000_HDMI','CURIOSITY-PIC64GX1000_HDMI',
'CURIOSITY-PIC64GX1000_HDMI',(#595));
#594=PRODUCT_CATEGORY('','');
#595=PRODUCT_CONTEXT('',#597,'mechanical');
#596=APPLICATION_PROTOCOL_DEFINITION('international standard',
'automotive_design',2010,#597);
#597=APPLICATION_CONTEXT(
'core data for automotive mechanical design processes');
ENDSEC;
END-ISO-10303-21;
