999
"DXF R12 Output" (www.mydxf.blogspot.com)
 0 
SECTION
 2 
HEADER
 9 
$ACADVER
 1 
AC1009
 9 
$EXTMIN
 10 
 0 
 20 
 0 
 9 
$EXTMAX
 10 
 8.5 
 20 
 11 
 0 
ENDSEC
 0 
SECTION
 2 
ENTITIES
0
LINE
8
OUTER_LOOP
10
138.542363
20
290.927963
11
135.622499
21
292.353268
0
LINE
8
OUTER_LOOP
10
135.622499
20
292.353268
11
132.555546
21
293.384363
0
LINE
8
OUTER_LOOP
10
132.555546
20
293.384363
11
129.381112
21
294.010723
0
LINE
8
OUTER_LOOP
10
129.381112
20
294.010723
11
126.138808
21
294.221819
0
LINE
8
OUTER_LOOP
10
126.138808
20
294.221819
11
79.417122
21
294.221819
0
LINE
8
OUTER_LOOP
10
79.417122
20
294.221819
11
76.174854
21
294.010723
0
LINE
8
OUTER_LOOP
10
76.174854
20
294.010723
11
73.000446
21
293.384363
0
LINE
8
OUTER_LOOP
10
73.000446
20
293.384363
11
69.933521
21
292.353268
0
LINE
8
OUTER_LOOP
10
69.933521
20
292.353268
11
67.013699
21
290.927963
0
LINE
8
OUTER_LOOP
10
67.013699
20
290.927963
11
3.281983
21
254.509910
0
LINE
8
OUTER_LOOP
10
3.281983
20
254.509910
11
2.913212
21
254.143540
0
LINE
8
OUTER_LOOP
10
2.913212
20
254.143540
11
2.778122
21
253.641606
0
LINE
8
OUTER_LOOP
10
2.778122
20
253.641606
11
2.778122
21
145.222081
0
LINE
8
OUTER_LOOP
10
2.778122
20
145.222081
11
2.856709
21
144.832823
0
LINE
8
OUTER_LOOP
10
2.856709
20
144.832823
11
3.071017
21
144.514952
0
LINE
8
OUTER_LOOP
10
3.071017
20
144.514952
11
3.388878
21
144.300631
0
LINE
8
OUTER_LOOP
10
3.388878
20
144.300631
11
3.778121
21
144.222024
0
LINE
8
OUTER_LOOP
10
3.778121
20
144.222024
11
201.777811
21
144.222024
0
LINE
8
OUTER_LOOP
10
201.777811
20
144.222024
11
202.167089
21
144.300631
0
LINE
8
OUTER_LOOP
10
202.167089
20
144.300631
11
202.484966
21
144.514952
0
LINE
8
OUTER_LOOP
10
202.484966
20
144.514952
11
202.699282
21
144.832823
0
LINE
8
OUTER_LOOP
10
202.699282
20
144.832823
11
202.777872
21
145.222081
0
LINE
8
OUTER_LOOP
10
202.777872
20
145.222081
11
202.777872
21
253.641606
0
LINE
8
OUTER_LOOP
10
202.777872
20
253.641606
11
202.642786
21
254.143540
0
LINE
8
OUTER_LOOP
10
202.642786
20
254.143540
11
202.274061
21
254.509910
0
LINE
8
OUTER_LOOP
10
202.274061
20
254.509910
11
138.542363
21
290.927963
0
LINE
8
INTERIOR_LOOPS
10
190.377885
20
250.704423
11
190.252149
21
251.327214
0
LINE
8
INTERIOR_LOOPS
10
190.252149
20
251.327214
11
189.909257
21
251.835792
0
LINE
8
INTERIOR_LOOPS
10
189.909257
20
251.835792
11
189.400678
21
252.178684
0
LINE
8
INTERIOR_LOOPS
10
189.400678
20
252.178684
11
188.777886
21
252.304420
0
LINE
8
INTERIOR_LOOPS
10
188.777886
20
252.304420
11
188.155094
21
252.178684
0
LINE
8
INTERIOR_LOOPS
10
188.155094
20
252.178684
11
187.646517
21
251.835792
0
LINE
8
INTERIOR_LOOPS
10
187.646517
20
251.835792
11
187.303624
21
251.327214
0
LINE
8
INTERIOR_LOOPS
10
187.303624
20
251.327214
11
187.177889
21
250.704423
0
LINE
8
INTERIOR_LOOPS
10
187.177889
20
250.704423
11
187.303624
21
250.081632
0
LINE
8
INTERIOR_LOOPS
10
187.303624
20
250.081632
11
187.646517
21
249.573054
0
LINE
8
INTERIOR_LOOPS
10
187.646517
20
249.573054
11
188.155094
21
249.230162
0
LINE
8
INTERIOR_LOOPS
10
188.155094
20
249.230162
11
188.777886
21
249.104426
0
LINE
8
INTERIOR_LOOPS
10
188.777886
20
249.104426
11
189.400678
21
249.230162
0
LINE
8
INTERIOR_LOOPS
10
189.400678
20
249.230162
11
189.909257
21
249.573054
0
LINE
8
INTERIOR_LOOPS
10
189.909257
20
249.573054
11
190.252149
21
250.081632
0
LINE
8
INTERIOR_LOOPS
10
190.252149
20
250.081632
11
190.377885
21
250.704423
0
LINE
8
INTERIOR_LOOPS
10
190.377885
20
250.704423
11
190.377885
21
250.704423
0
LINE
8
INTERIOR_LOOPS
10
190.377885
20
154.222057
11
190.252149
21
154.844848
0
LINE
8
INTERIOR_LOOPS
10
190.252149
20
154.844848
11
189.909257
21
155.353426
0
LINE
8
INTERIOR_LOOPS
10
189.909257
20
155.353426
11
189.400678
21
155.696318
0
LINE
8
INTERIOR_LOOPS
10
189.400678
20
155.696318
11
188.777886
21
155.822054
0
LINE
8
INTERIOR_LOOPS
10
188.777886
20
155.822054
11
188.155094
21
155.696318
0
LINE
8
INTERIOR_LOOPS
10
188.155094
20
155.696318
11
187.646517
21
155.353426
0
LINE
8
INTERIOR_LOOPS
10
187.646517
20
155.353426
11
187.303624
21
154.844848
0
LINE
8
INTERIOR_LOOPS
10
187.303624
20
154.844848
11
187.177889
21
154.222057
0
LINE
8
INTERIOR_LOOPS
10
187.177889
20
154.222057
11
187.303624
21
153.599266
0
LINE
8
INTERIOR_LOOPS
10
187.303624
20
153.599266
11
187.646517
21
153.090688
0
LINE
8
INTERIOR_LOOPS
10
187.646517
20
153.090688
11
188.155094
21
152.747796
0
LINE
8
INTERIOR_LOOPS
10
188.155094
20
152.747796
11
188.777886
21
152.622060
0
LINE
8
INTERIOR_LOOPS
10
188.777886
20
152.622060
11
189.400678
21
152.747796
0
LINE
8
INTERIOR_LOOPS
10
189.400678
20
152.747796
11
189.909257
21
153.090688
0
LINE
8
INTERIOR_LOOPS
10
189.909257
20
153.090688
11
190.252149
21
153.599266
0
LINE
8
INTERIOR_LOOPS
10
190.252149
20
153.599266
11
190.377885
21
154.222057
0
LINE
8
INTERIOR_LOOPS
10
190.377885
20
154.222057
11
190.377885
21
154.222057
0
LINE
8
INTERIOR_LOOPS
10
18.378102
20
250.704423
11
18.252367
21
251.327214
0
LINE
8
INTERIOR_LOOPS
10
18.252367
20
251.327214
11
17.909474
21
251.835792
0
LINE
8
INTERIOR_LOOPS
10
17.909474
20
251.835792
11
17.400896
21
252.178684
0
LINE
8
INTERIOR_LOOPS
10
17.400896
20
252.178684
11
16.778104
21
252.304420
0
LINE
8
INTERIOR_LOOPS
10
16.778104
20
252.304420
11
16.155313
21
252.178684
0
LINE
8
INTERIOR_LOOPS
10
16.155313
20
252.178684
11
15.646735
21
251.835792
0
LINE
8
INTERIOR_LOOPS
10
15.646735
20
251.835792
11
15.303842
21
251.327214
0
LINE
8
INTERIOR_LOOPS
10
15.303842
20
251.327214
11
15.178106
21
250.704423
0
LINE
8
INTERIOR_LOOPS
10
15.178106
20
250.704423
11
15.303842
21
250.081632
0
LINE
8
INTERIOR_LOOPS
10
15.303842
20
250.081632
11
15.646735
21
249.573054
0
LINE
8
INTERIOR_LOOPS
10
15.646735
20
249.573054
11
16.155313
21
249.230162
0
LINE
8
INTERIOR_LOOPS
10
16.155313
20
249.230162
11
16.778104
21
249.104426
0
LINE
8
INTERIOR_LOOPS
10
16.778104
20
249.104426
11
17.400896
21
249.230162
0
LINE
8
INTERIOR_LOOPS
10
17.400896
20
249.230162
11
17.909474
21
249.573054
0
LINE
8
INTERIOR_LOOPS
10
17.909474
20
249.573054
11
18.252367
21
250.081632
0
LINE
8
INTERIOR_LOOPS
10
18.252367
20
250.081632
11
18.378102
21
250.704423
0
LINE
8
INTERIOR_LOOPS
10
18.378102
20
250.704423
11
18.378102
21
250.704423
0
LINE
8
INTERIOR_LOOPS
10
18.378102
20
154.222057
11
18.252367
21
154.844848
0
LINE
8
INTERIOR_LOOPS
10
18.252367
20
154.844848
11
17.909474
21
155.353426
0
LINE
8
INTERIOR_LOOPS
10
17.909474
20
155.353426
11
17.400896
21
155.696318
0
LINE
8
INTERIOR_LOOPS
10
17.400896
20
155.696318
11
16.778104
21
155.822054
0
LINE
8
INTERIOR_LOOPS
10
16.778104
20
155.822054
11
16.155313
21
155.696318
0
LINE
8
INTERIOR_LOOPS
10
16.155313
20
155.696318
11
15.646735
21
155.353426
0
LINE
8
INTERIOR_LOOPS
10
15.646735
20
155.353426
11
15.303842
21
154.844848
0
LINE
8
INTERIOR_LOOPS
10
15.303842
20
154.844848
11
15.178106
21
154.222057
0
LINE
8
INTERIOR_LOOPS
10
15.178106
20
154.222057
11
15.303842
21
153.599266
0
LINE
8
INTERIOR_LOOPS
10
15.303842
20
153.599266
11
15.646735
21
153.090688
0
LINE
8
INTERIOR_LOOPS
10
15.646735
20
153.090688
11
16.155313
21
152.747796
0
LINE
8
INTERIOR_LOOPS
10
16.155313
20
152.747796
11
16.778104
21
152.622060
0
LINE
8
INTERIOR_LOOPS
10
16.778104
20
152.622060
11
17.400896
21
152.747796
0
LINE
8
INTERIOR_LOOPS
10
17.400896
20
152.747796
11
17.909474
21
153.090688
0
LINE
8
INTERIOR_LOOPS
10
17.909474
20
153.090688
11
18.252367
21
153.599266
0
LINE
8
INTERIOR_LOOPS
10
18.252367
20
153.599266
11
18.378102
21
154.222057
0
LINE
8
INTERIOR_LOOPS
10
18.378102
20
154.222057
11
18.378102
21
154.222057
0
LINE
8
INTERIOR_LOOPS
10
153.272932
20
241.131945
11
153.147196
21
241.754736
0
LINE
8
INTERIOR_LOOPS
10
153.147196
20
241.754736
11
152.804303
21
242.263314
0
LINE
8
INTERIOR_LOOPS
10
152.804303
20
242.263314
11
152.295725
21
242.606206
0
LINE
8
INTERIOR_LOOPS
10
152.295725
20
242.606206
11
151.672932
21
242.731942
0
LINE
8
INTERIOR_LOOPS
10
151.672932
20
242.731942
11
151.050141
21
242.606206
0
LINE
8
INTERIOR_LOOPS
10
151.050141
20
242.606206
11
150.541564
21
242.263314
0
LINE
8
INTERIOR_LOOPS
10
150.541564
20
242.263314
11
150.198671
21
241.754736
0
LINE
8
INTERIOR_LOOPS
10
150.198671
20
241.754736
11
150.072935
21
241.131945
0
LINE
8
INTERIOR_LOOPS
10
150.072935
20
241.131945
11
150.198671
21
240.509154
0
LINE
8
INTERIOR_LOOPS
10
150.198671
20
240.509154
11
150.541564
21
240.000576
0
LINE
8
INTERIOR_LOOPS
10
150.541564
20
240.000576
11
151.050141
21
239.657684
0
LINE
8
INTERIOR_LOOPS
10
151.050141
20
239.657684
11
151.672932
21
239.531948
0
LINE
8
INTERIOR_LOOPS
10
151.672932
20
239.531948
11
152.295725
21
239.657684
0
LINE
8
INTERIOR_LOOPS
10
152.295725
20
239.657684
11
152.804303
21
240.000576
0
LINE
8
INTERIOR_LOOPS
10
152.804303
20
240.000576
11
153.147196
21
240.509154
0
LINE
8
INTERIOR_LOOPS
10
153.147196
20
240.509154
11
153.272932
21
241.131945
0
LINE
8
INTERIOR_LOOPS
10
153.272932
20
241.131945
11
153.272932
21
241.131945
0
LINE
8
INTERIOR_LOOPS
10
55.483055
20
241.131945
11
55.357319
21
241.754736
0
LINE
8
INTERIOR_LOOPS
10
55.357319
20
241.754736
11
55.014427
21
242.263314
0
LINE
8
INTERIOR_LOOPS
10
55.014427
20
242.263314
11
54.505848
21
242.606206
0
LINE
8
INTERIOR_LOOPS
10
54.505848
20
242.606206
11
53.883056
21
242.731942
0
LINE
8
INTERIOR_LOOPS
10
53.883056
20
242.731942
11
53.260264
21
242.606206
0
LINE
8
INTERIOR_LOOPS
10
53.260264
20
242.606206
11
52.751687
21
242.263314
0
LINE
8
INTERIOR_LOOPS
10
52.751687
20
242.263314
11
52.408794
21
241.754736
0
LINE
8
INTERIOR_LOOPS
10
52.408794
20
241.754736
11
52.283059
21
241.131945
0
LINE
8
INTERIOR_LOOPS
10
52.283059
20
241.131945
11
52.408794
21
240.509154
0
LINE
8
INTERIOR_LOOPS
10
52.408794
20
240.509154
11
52.751687
21
240.000576
0
LINE
8
INTERIOR_LOOPS
10
52.751687
20
240.000576
11
53.260264
21
239.657684
0
LINE
8
INTERIOR_LOOPS
10
53.260264
20
239.657684
11
53.883056
21
239.531948
0
LINE
8
INTERIOR_LOOPS
10
53.883056
20
239.531948
11
54.505848
21
239.657684
0
LINE
8
INTERIOR_LOOPS
10
54.505848
20
239.657684
11
55.014427
21
240.000576
0
LINE
8
INTERIOR_LOOPS
10
55.014427
20
240.000576
11
55.357319
21
240.509154
0
LINE
8
INTERIOR_LOOPS
10
55.357319
20
240.509154
11
55.483055
21
241.131945
0
LINE
8
INTERIOR_LOOPS
10
55.483055
20
241.131945
11
55.483055
21
241.131945
0
LINE
8
INTERIOR_LOOPS
10
55.483055
20
157.312043
11
55.357319
21
157.934834
0
LINE
8
INTERIOR_LOOPS
10
55.357319
20
157.934834
11
55.014427
21
158.443411
0
LINE
8
INTERIOR_LOOPS
10
55.014427
20
158.443411
11
54.505848
21
158.786304
0
LINE
8
INTERIOR_LOOPS
10
54.505848
20
158.786304
11
53.883056
21
158.912039
0
LINE
8
INTERIOR_LOOPS
10
53.883056
20
158.912039
11
53.260264
21
158.786304
0
LINE
8
INTERIOR_LOOPS
10
53.260264
20
158.786304
11
52.751687
21
158.443411
0
LINE
8
INTERIOR_LOOPS
10
52.751687
20
158.443411
11
52.408794
21
157.934834
0
LINE
8
INTERIOR_LOOPS
10
52.408794
20
157.934834
11
52.283059
21
157.312043
0
LINE
8
INTERIOR_LOOPS
10
52.283059
20
157.312043
11
52.408794
21
156.689251
0
LINE
8
INTERIOR_LOOPS
10
52.408794
20
156.689251
11
52.751687
21
156.180674
0
LINE
8
INTERIOR_LOOPS
10
52.751687
20
156.180674
11
53.260264
21
155.837781
0
LINE
8
INTERIOR_LOOPS
10
53.260264
20
155.837781
11
53.883056
21
155.712046
0
LINE
8
INTERIOR_LOOPS
10
53.883056
20
155.712046
11
54.505848
21
155.837781
0
LINE
8
INTERIOR_LOOPS
10
54.505848
20
155.837781
11
55.014427
21
156.180674
0
LINE
8
INTERIOR_LOOPS
10
55.014427
20
156.180674
11
55.357319
21
156.689251
0
LINE
8
INTERIOR_LOOPS
10
55.357319
20
156.689251
11
55.483055
21
157.312043
0
LINE
8
INTERIOR_LOOPS
10
55.483055
20
157.312043
11
55.483055
21
157.312043
0
LINE
8
INTERIOR_LOOPS
10
153.272932
20
157.312043
11
153.147196
21
157.934834
0
LINE
8
INTERIOR_LOOPS
10
153.147196
20
157.934834
11
152.804303
21
158.443411
0
LINE
8
INTERIOR_LOOPS
10
152.804303
20
158.443411
11
152.295725
21
158.786304
0
LINE
8
INTERIOR_LOOPS
10
152.295725
20
158.786304
11
151.672932
21
158.912039
0
LINE
8
INTERIOR_LOOPS
10
151.672932
20
158.912039
11
151.050141
21
158.786304
0
LINE
8
INTERIOR_LOOPS
10
151.050141
20
158.786304
11
150.541564
21
158.443411
0
LINE
8
INTERIOR_LOOPS
10
150.541564
20
158.443411
11
150.198671
21
157.934834
0
LINE
8
INTERIOR_LOOPS
10
150.198671
20
157.934834
11
150.072935
21
157.312043
0
LINE
8
INTERIOR_LOOPS
10
150.072935
20
157.312043
11
150.198671
21
156.689251
0
LINE
8
INTERIOR_LOOPS
10
150.198671
20
156.689251
11
150.541564
21
156.180674
0
LINE
8
INTERIOR_LOOPS
10
150.541564
20
156.180674
11
151.050141
21
155.837781
0
LINE
8
INTERIOR_LOOPS
10
151.050141
20
155.837781
11
151.672932
21
155.712046
0
LINE
8
INTERIOR_LOOPS
10
151.672932
20
155.712046
11
152.295725
21
155.837781
0
LINE
8
INTERIOR_LOOPS
10
152.295725
20
155.837781
11
152.804303
21
156.180674
0
LINE
8
INTERIOR_LOOPS
10
152.804303
20
156.180674
11
153.147196
21
156.689251
0
LINE
8
INTERIOR_LOOPS
10
153.147196
20
156.689251
11
153.272932
21
157.312043
0
LINE
8
INTERIOR_LOOPS
10
153.272932
20
157.312043
11
153.272932
21
157.312043
 0 
ENDSEC
 0 
EOF